<svg xmlns="http://www.w3.org/2000/svg" xmlns:xlink="http://www.w3.org/1999/xlink" xmlns:inkscape="http://www.inkscape.org/namespaces/inkscape" version="1.1" width="390" height="333" viewBox="0 0 390 333" xmlns:c2pa="http://c2pa.org/manifest"><metadata><c2pa:manifest>AAAWgmp1bWIAAAAeanVtZGMycGEAEQAQgAAAqgA4m3EDYzJwYQAAABZcanVtYgAAAEdqdW1kYzJtYQARABCAAACqADibcQN1cm46YzJwYTo0YTlmMTE0ZS0xZDY4LTRmMDAtOGFhYy01ZDNjOTQ3Mjg0ZGQAAAADl2p1bWIAAAApanVtZGMyYXMAEQAQgAAAqgA4m3EDYzJwYS5hc3NlcnRpb25zAAAAALxqdW1iAAAARGp1bWRjYm9yABEAEIAAAKoAOJtxE2MycGEuaW5ncmVkaWVudC52MwAAAAAYYzJzaHoszYidiu9HNHoQS4SUKtEAAABwY2JvcqNpZGM6Zm9ybWF0bWltYWdlL3N2Zyt4bWxqaW5zdGFuY2VJRHgseG1wOmlpZDphNDkzZTU1YS04Zjc1LTRiN2QtODU5Yi1hNjMxODU0NzI4ODlscmVsYXRpb25zaGlwaHBhcmVudE9mAAAB4mp1bWIAAABBanVtZGNib3IAEQAQgAAAqgA4m3ETYzJwYS5hY3Rpb25zLnYyAAAAABhjMnNocV+z0Kz6VQTTVPzr4vnsbQAAAZljYm9yomdhY3Rpb25zgqJmYWN0aW9ua2MycGEub3BlbmVkanBhcmFtZXRlcnOha2luZ3JlZGllbnRzgaJjdXJseC1zZWxmI2p1bWJmPWMycGEuYXNzZXJ0aW9ucy9jMnBhLmluZ3JlZGllbnQudjNkaGFzaFggU/UN0cI7ebTCkqg8EqjE94dDVbaJqZZiLC2AP88SGz+kZmFjdGlvbngdY29tLmFudGhyb3BpYy5jbGF1ZGUucHJvdmlkZWRqcGFyYW1ldGVyc6F4H2NvbS5hbnRocm9waWMub3JpZ2luLWNvbmZpZGVuY2VndW5rbm93bmtkZXNjcmlwdGlvbnhmQ2xhdWRlIHByb3ZpZGVkIHRoaXMgZmlsZSBhdCB0aGUgcmVxdWVzdCBvZiBhIHVzZXIgYW5kIG1heSBoYXZlIGNyZWF0ZWQgb3IgbW9kaWZpZWQgdGhlIGZpbGUgY29udGVudHMubXNvZnR3YXJlQWdlbnShZG5hbWVmQ2xhdWRlcmFsbEFjdGlvbnNJbmNsdWRlZPUAAADIanVtYgAAAEBqdW1kY2JvcgARABCAAACqADibcRNjMnBhLmhhc2guZGF0YQAAAAAYYzJzaMXA3Z3+eDXIEeimZic/ObQAAACAY2JvcqVjYWxnZnNoYTI1NmNwYWRMAAAAAAAAAAAAAAAAZGhhc2hYIKOdvktzDSxLTDXH2kKBI2q8fmb7XPOdK3shT5yeeQ2yZG5hbWVuanVtYmYgbWFuaWZlc3RqZXhjbHVzaW9uc4GiZXN0YXJ0GQEMZmxlbmd0aBkeBAAAAj5qdW1iAAAAJ2p1bWRjMmNsABEAEIAAAKoAOJtxA2MycGEuY2xhaW0udjIAAAACD2Nib3KlY2FsZ2ZzaGEyNTZpc2lnbmF0dXJleE1zZWxmI2p1bWJmPS9jMnBhL3VybjpjMnBhOjRhOWYxMTRlLTFkNjgtNGYwMC04YWFjLTVkM2M5NDcyODRkZC9jMnBhLnNpZ25hdHVyZWppbnN0YW5jZUlEeCx4bXA6aWlkOjRhN2RmZDc0LWM4ZTQtNDA4MS05ZTFjLWJiOWE4ZTY0Y2I2YnJjcmVhdGVkX2Fzc2VydGlvbnODomN1cmx4LXNlbGYjanVtYmY9YzJwYS5hc3NlcnRpb25zL2MycGEuaW5ncmVkaWVudC52M2RoYXNoWCBT9Q3Rwjt5tMKSqDwSqMT3h0NVtomplmIsLYA/zxIbP6JjdXJseCpzZWxmI2p1bWJmPWMycGEuYXNzZXJ0aW9ucy9jMnBhLmFjdGlvbnMudjJkaGFzaFggI+uElKvwSn+NfSsJEazKz+uHdIf7CqYebYFlMS25N2miY3VybHgpc2VsZiNqdW1iZj1jMnBhLmFzc2VydGlvbnMvYzJwYS5oYXNoLmRhdGFkaGFzaFggDaysrC9P5krnCYzrIIrfW0mXuw1c1pYDSQnzTNcjLJN0Y2xhaW1fZ2VuZXJhdG9yX2luZm+jZG5hbWVvQW50aHJvcGljIEZpbGVzZ3ZlcnNpb25lMS4wLjBrc3BlY1ZlcnNpb25lMi40LjAAABA4anVtYgAAAChqdW1kYzJjcwARABCAAACqADibcQNjMnBhLnNpZ25hdHVyZQAAABAIY2JvctKEWQISogEmGCFZAgowggIGMIIBjaADAgECAhRA5aAK7sI50L64g/oGQgU9Z1UTADAKBggqhkjOPQQDAzBJMRcwFQYDVQQKEw5BbnRocm9waWMsIFBCQzEuMCwGA1UEAxMlQW50aHJvcGljIENvbnRlbnQgQ3JlZGVudGlhbHMgUm9vdCBDQTAeFw0yNjA4MDcxODQzNTZaFw0yODA4MDYxOTQzNTZaMEQxFzAVBgNVBAoTDkFudGhyb3BpYywgUEJDMSkwJwYDVQQDEyBBbnRocm9waWMgQ2xhdWRlIENvbnRlbnQgU2lnbmluZzBZMBMGByqGSM49AgEGCCqGSM49AwEHA0IABJh6CmvLUBgFFNU0vUKlOVtE6djd17L5SuwX0LemFisBM3dkd/3cyjxFA3Qo5S46fX0/ihY0VZ7mfb9KF703t5OjWDBWMA4GA1UdDwEB/wQEAwIHgDAVBgNVHSUEDjAMBgorBgEEAYPoXgIBMAwGA1UdEwEB/wQCMAAwHwYDVR0jBBgwFoAUzlHiBIFOZFsj+OPEz5o+nMHXXMIwCgYIKoZIzj0EAwMDZwAwZAIwMXMdFJ4BetLLVY7ORuE9noqbbAZOZn/aArXyTwFAZfKrPzxF2vPoJNf1+UCdg1XGAjBwX1zd9WGqYkqmL5SFqw1QySjr1zJfpJM9+1rdDwSPLMOPOjKuiXjoU/pUUeG9RwmhY3BhZFkNngAAAAAAAAAAAAAAAAAAAAAAAAAAAAAAAAAAAAAAAAAAAAAAAAAAAAAAAAAAAAAAAAAAAAAAAAAAAAAAAAAAAAAAAAAAAAAAAAAAAAAAAAAAAAAAAAAAAAAAAAAAAAAAAAAAAAAAAAAAAAAAAAAAAAAAAAAAAAAAAAAAAAAAAAAAAAAAAAAAAAAAAAAAAAAAAAAAAAAAAAAAAAAAAAAAAAAAAAAAAAAAAAAAAAAAAAAAAAAAAAAAAAAAAAAAAAAAAAAAAAAAAAAAAAAAAAAAAAAAAAAAAAAAAAAAAAAAAAAAAAAAAAAAAAAAAAAAAAAAAAAAAAAAAAAAAAAAAAAAAAAAAAAAAAAAAAAAAAAAAAAAAAAAAAAAAAAAAAAAAAAAAAAAAAAAAAAAAAAAAAAAAAAAAAAAAAAAAAAAAAAAAAAAAAAAAAAAAAAAAAAAAAAAAAAAAAAAAAAAAAAAAAAAAAAAAAAAAAAAAAAAAAAAAAAAAAAAAAAAAAAAAAAAAAAAAAAAAAAAAAAAAAAAAAAAAAAAAAAAAAAAAAAAAAAAAAAAAAAAAAAAAAAAAAAAAAAAAAAAAAAAAAAAAAAAAAAAAAAAAAAAAAAAAAAAAAAAAAAAAAAAAAAAAAAAAAAAAAAAAAAAAAAAAAAAAAAAAAAAAAAAAAAAAAAAAAAAAAAAAAAAAAAAAAAAAAAAAAAAAAAAAAAAAAAAAAAAAAAAAAAAAAAAAAAAAAAAAAAAAAAAAAAAAAAAAAAAAAAAAAAAAAAAAAAAAAAAAAAAAAAAAAAAAAAAAAAAAAAAAAAAAAAAAAAAAAAAAAAAAAAAAAAAAAAAAAAAAAAAAAAAAAAAAAAAAAAAAAAAAAAAAAAAAAAAAAAAAAAAAAAAAAAAAAAAAAAAAAAAAAAAAAAAAAAAAAAAAAAAAAAAAAAAAAAAAAAAAAAAAAAAAAAAAAAAAAAAAAAAAAAAAAAAAAAAAAAAAAAAAAAAAAAAAAAAAAAAAAAAAAAAAAAAAAAAAAAAAAAAAAAAAAAAAAAAAAAAAAAAAAAAAAAAAAAAAAAAAAAAAAAAAAAAAAAAAAAAAAAAAAAAAAAAAAAAAAAAAAAAAAAAAAAAAAAAAAAAAAAAAAAAAAAAAAAAAAAAAAAAAAAAAAAAAAAAAAAAAAAAAAAAAAAAAAAAAAAAAAAAAAAAAAAAAAAAAAAAAAAAAAAAAAAAAAAAAAAAAAAAAAAAAAAAAAAAAAAAAAAAAAAAAAAAAAAAAAAAAAAAAAAAAAAAAAAAAAAAAAAAAAAAAAAAAAAAAAAAAAAAAAAAAAAAAAAAAAAAAAAAAAAAAAAAAAAAAAAAAAAAAAAAAAAAAAAAAAAAAAAAAAAAAAAAAAAAAAAAAAAAAAAAAAAAAAAAAAAAAAAAAAAAAAAAAAAAAAAAAAAAAAAAAAAAAAAAAAAAAAAAAAAAAAAAAAAAAAAAAAAAAAAAAAAAAAAAAAAAAAAAAAAAAAAAAAAAAAAAAAAAAAAAAAAAAAAAAAAAAAAAAAAAAAAAAAAAAAAAAAAAAAAAAAAAAAAAAAAAAAAAAAAAAAAAAAAAAAAAAAAAAAAAAAAAAAAAAAAAAAAAAAAAAAAAAAAAAAAAAAAAAAAAAAAAAAAAAAAAAAAAAAAAAAAAAAAAAAAAAAAAAAAAAAAAAAAAAAAAAAAAAAAAAAAAAAAAAAAAAAAAAAAAAAAAAAAAAAAAAAAAAAAAAAAAAAAAAAAAAAAAAAAAAAAAAAAAAAAAAAAAAAAAAAAAAAAAAAAAAAAAAAAAAAAAAAAAAAAAAAAAAAAAAAAAAAAAAAAAAAAAAAAAAAAAAAAAAAAAAAAAAAAAAAAAAAAAAAAAAAAAAAAAAAAAAAAAAAAAAAAAAAAAAAAAAAAAAAAAAAAAAAAAAAAAAAAAAAAAAAAAAAAAAAAAAAAAAAAAAAAAAAAAAAAAAAAAAAAAAAAAAAAAAAAAAAAAAAAAAAAAAAAAAAAAAAAAAAAAAAAAAAAAAAAAAAAAAAAAAAAAAAAAAAAAAAAAAAAAAAAAAAAAAAAAAAAAAAAAAAAAAAAAAAAAAAAAAAAAAAAAAAAAAAAAAAAAAAAAAAAAAAAAAAAAAAAAAAAAAAAAAAAAAAAAAAAAAAAAAAAAAAAAAAAAAAAAAAAAAAAAAAAAAAAAAAAAAAAAAAAAAAAAAAAAAAAAAAAAAAAAAAAAAAAAAAAAAAAAAAAAAAAAAAAAAAAAAAAAAAAAAAAAAAAAAAAAAAAAAAAAAAAAAAAAAAAAAAAAAAAAAAAAAAAAAAAAAAAAAAAAAAAAAAAAAAAAAAAAAAAAAAAAAAAAAAAAAAAAAAAAAAAAAAAAAAAAAAAAAAAAAAAAAAAAAAAAAAAAAAAAAAAAAAAAAAAAAAAAAAAAAAAAAAAAAAAAAAAAAAAAAAAAAAAAAAAAAAAAAAAAAAAAAAAAAAAAAAAAAAAAAAAAAAAAAAAAAAAAAAAAAAAAAAAAAAAAAAAAAAAAAAAAAAAAAAAAAAAAAAAAAAAAAAAAAAAAAAAAAAAAAAAAAAAAAAAAAAAAAAAAAAAAAAAAAAAAAAAAAAAAAAAAAAAAAAAAAAAAAAAAAAAAAAAAAAAAAAAAAAAAAAAAAAAAAAAAAAAAAAAAAAAAAAAAAAAAAAAAAAAAAAAAAAAAAAAAAAAAAAAAAAAAAAAAAAAAAAAAAAAAAAAAAAAAAAAAAAAAAAAAAAAAAAAAAAAAAAAAAAAAAAAAAAAAAAAAAAAAAAAAAAAAAAAAAAAAAAAAAAAAAAAAAAAAAAAAAAAAAAAAAAAAAAAAAAAAAAAAAAAAAAAAAAAAAAAAAAAAAAAAAAAAAAAAAAAAAAAAAAAAAAAAAAAAAAAAAAAAAAAAAAAAAAAAAAAAAAAAAAAAAAAAAAAAAAAAAAAAAAAAAAAAAAAAAAAAAAAAAAAAAAAAAAAAAAAAAAAAAAAAAAAAAAAAAAAAAAAAAAAAAAAAAAAAAAAAAAAAAAAAAAAAAAAAAAAAAAAAAAAAAAAAAAAAAAAAAAAAAAAAAAAAAAAAAAAAAAAAAAAAAAAAAAAAAAAAAAAAAAAAAAAAAAAAAAAAAAAAAAAAAAAAAAAAAAAAAAAAAAAAAAAAAAAAAAAAAAAAAAAAAAAAAAAAAAAAAAAAAAAAAAAAAAAAAAAAAAAAAAAAAAAAAAAAAAAAAAAAAAAAAAAAAAAAAAAAAAAAAAAAAAAAAAAAAAAAAAAAAAAAAAAAAAAAAAAAAAAAAAAAAAAAAAAAAAAAAAAAAAAAAAAAAAAAAAAAAAAAAAAAAAAAAAAAAAAAAAAAAAAAAAAAAAAAAAAAAAAAAAAAAAAAAAAAAAAAAAAAAAAAAAAAAAAAAAAAAAAAAAAAAAAAAAAAAAAAAAAAAAAAAAAAAAAAAAAAAAAAAAAAAAAAAAAAAAAAAAAAAAAAAAAAAAAAAAAAAAAAAAAAAAAAAAAAAAAAAAAAAAAAAAAAAAAAAAAAAAAAAAAAAAAAAAAAAAAAAAAAAAAAAAAAAAAAAAAAAAAAAAAAAAAAAAAAAAAAAAAAAAAAAAAAAAAAAAAAAAAAAAAAAAAAAAAAAAAAAAAAAAAAAAAAAAAAAAAAAAAAAAAAAAAAAAAAAAAAAAAAAAAAAAAAAAAAAAAAAAAAAAAAAAAAAAAAAAAAAAAAAAAAAAAAAAAAAAAAAAAAAAAAAAAAAAAAAAAAAAAAAAAAAAAAAAAAAAAAAAAAAAAAAAAAAAAAAAAAAAAAAAAAAAAAAAAAAAAAAAAAAAAAAAAAAAAAAAAAAAAAAAAAAAAAAAAAAAAAAAAAAAAAAAAAAAAAAAAAAAAAAAAAAAAAAAAAAAAAAAAAAAAAAAAAAAAAAAAAAAAAAAAAAAAAAAAAAAAAAAAAAAAAAAAAAAAAAAAAAAAAAAAAAAAAAAAAAAAAAAAAAAAAAAAAAAAAAAAAAAAAAAAAAAAAAAAAAAAAAAAAAAAAAAAAAAAAAAAAAAAAAAAAAAAAAAAAAAAAAAAAAAAAAAAAAAAAAAAAAAAAAAAAAAAAAAAAAAAAAAAAAAAAAAAAAAAAAAAAAAAAAAAAAAAAAAAAAAAAAAAAAAAAAAAAAAAAAAAAAAAAAAAAAAAAAAAAAAAAAAAAAAAAAAAAAAAAAAAAAAAAAAAAAAAAAAAAAAAAAAAAAAAAAAAAAAAAAAAAAAAAAAAAAAAAAAAAAAAAAAAAAAAAAAAAAAAAAAAAAAAAAAAAAAAAAAAAAAAAAAAAAAAAAAAAAAAAAAAAAAAAAAAAAAAAAAAAAAAAAAAAAAAAAAAAAAAAAAAAAAAAAAAAAAAAAAAAAAAAAAAAAAAAAAAAAAAAAAAAAAAAAAAAAAAAAAAAAAAAAAAAAAAAAAAAAAAAAAAAAAAAAAAAAAAAAAAAAAAAAAAAAAAAAAAAAAAAAAAAAAAAAAAAAAAAAAAAAAAAAAAAAAAAAAAAAAAAAAAAAAAAAAAAAAAAAAAAAAAAAAAAAAAAAAAAAAAAAAAAAAAAAAAAAAAAAAAAAAAAAAAAAAAAAAAAAAAAAAAAAAAAAAAAAAAAAAAAAAAAAAAAAAAAAAAAAAAAAAAAAAAAAAAAAAAAAAAAAAAAAAAAAAAAAAAAAAAAAAAAAAAAAAAAAAAAAAAAAPZYQJWrQosTYsL98pM3JtTAPFiH+DvKh4xzr7QLii0RYttG9krLD4yhcdJrGhOH6AAZUpi/9PyGC4dAGBcleeZiuNE=</c2pa:manifest></metadata><rect x="0" y="0" width="390" height="333" fill="#ffffff"/>
<defs>
<clipPath id="clip_1">
<path transform="matrix(1,0,0,-1,-1360,599)" d="M1360 266H1750V599H1360Z" clip-rule="evenodd"/>
</clipPath>
<clipPath id="clip_2">
<path transform="matrix(1,0,0,-1,-1360,599)" d="M585.92 599.306H975.39797V932.8981H585.92Z" clip-rule="evenodd"/>
</clipPath>
<clipPath id="clip_3">
<path transform="matrix(1,0,0,-1,-1360,599)" d="M411.826 554.5H1170.0659V977.703H411.826Z" clip-rule="evenodd"/>
</clipPath>
<clipPath id="clip_4">
<path transform="matrix(1,0,0,-1,-1360,599)" d="M970.872 599.306H1360.35V932.8981H970.872Z" clip-rule="evenodd"/>
</clipPath>
<clipPath id="clip_5">
<path transform="matrix(1,0,0,-1,-1360,599)" d="M796.777 554.5H1555.017V977.703H796.777Z" clip-rule="evenodd"/>
</clipPath>
<clipPath id="clip_6">
<path transform="matrix(1,0,0,-1,-1360,599)" d="M195.721 599.306H585.199V932.8981H195.721Z" clip-rule="evenodd"/>
</clipPath>
<clipPath id="clip_7">
<path transform="matrix(1,0,0,-1,-1360,599)" d="M-8.82919 514.527H805.4268V968.996H-8.82919Z" clip-rule="evenodd"/>
</clipPath>
</defs>
<g>
<g clip-path="url(#clip_1)">
<g inkscape:groupmode="layer" inkscape:label="Capa 1">
</g>
<g inkscape:groupmode="layer" inkscape:label="Capa 1">
</g>
<g inkscape:groupmode="layer" inkscape:label="Capa 1">
<path transform="matrix(1,0,0,-1,-1360,599)" d="M970.872 265.714H1360.35V599.306H970.872Z" fill="#d4216a" fill-rule="evenodd"/>
<path transform="matrix(1,0,0,-1,-1360,599)" d="M1360.44 265.714H1749.918V599.306H1360.44Z" fill="#f5e9d8" fill-rule="evenodd"/>
<path transform="matrix(1,0,0,-1,-1360,599)" d="M1477.35 522.134C1480.16 521.089 1481.99 519.469 1480.74 516.072L1476.67 505.204 1470.69 489.319C1470.16 487.699 1469.44 485.975 1469.9 485.191 1470.53 484.146 1470.27 484.094 1468.29 484.669 1464.85 485.609 1462.41 487.072 1463.6 490.626L1468.29 503.114C1465.79 499.195 1463.29 495.224 1460.74 491.305 1459.38 489.267 1458.92 488.326 1458.03 488.222 1457.61 487.856 1457.09 487.856 1456.47 487.961 1452.98 488.692 1453.14 489.006 1453.34 490.626 1453.97 494.336 1454.7 498.045 1455.38 501.703L1449.8 489.476C1449.13 487.908 1448.29 486.236 1448.71 485.4 1449.28 484.303 1449.02 484.251 1447.04 484.982 1443.71 486.184 1441.37 487.804 1442.83 491.253L1454.65 517.222C1456.16 520.462 1457.09 521.925 1458.81 521.977 1459.38 521.977 1459.91 521.977 1460.37 521.925 1460.63 522.029 1460.95 522.081 1461.26 522.081 1463.45 522.029 1464.44 521.193 1463.92 517.954L1461.1 502.226C1464.59 507.764 1468.03 513.303 1471.57 518.842 1473.08 521.141 1474.49 522.447 1476.15 522.186 1476.47 522.291 1476.88 522.291 1477.35 522.134ZM1505.67 516.49C1506.04 515.707 1505.67 514.923 1505.2 514.714 1504.84 514.505 1504.47 514.714 1503.02 514.975 1500.67 515.341 1498.02 515.445 1495.05 515.341L1491.3 507.085 1490.52 505.413C1494.01 505.204 1497.6 504.42 1497.91 502.017 1497.96 501.651 1497.81 500.972 1497.7 499.979 1497.6 499.143 1497.7 498.411 1497.24 498.202 1496.87 497.993 1496.51 498.202 1495.05 498.463 1492.97 498.777 1490.15 498.934 1487.55 498.881L1484.58 492.402H1485.47C1489.58 492.454 1495.2 491.462 1495.62 488.379 1495.67 488.013 1495.47 487.229 1495.62 486.916 1495.99 486.132 1495.62 485.348 1495.15 485.139 1494.79 484.93 1494.42 485.139 1492.97 485.4 1488.54 486.132 1482.71 485.818 1476.51 484.982 1475.47 484.826 1475.05 486.445 1475.83 488.64 1475.68 489.372 1475.78 490.26 1476.25 491.253L1483.44 507.085 1486.87 514.609C1486.77 514.609 1486.66 514.557 1486.56 514.557 1485.36 514.4 1485 516.49 1486.3 519.103 1486.87 520.409 1488.44 521.141 1490.31 521.507 1490.78 521.925 1491.3 522.029 1492.03 521.768 1493.17 521.925 1494.37 521.977 1495.52 521.977 1499.63 522.029 1505.25 521.036 1505.67 517.954 1505.72 517.588 1505.52 516.804 1505.67 516.49ZM1528.22 517.17C1530.61 514.453 1528.95 507.921 1526.81 502.905 1523.06 494.022 1516.71 486.602 1506.87 484.982 1503.12 484.355 1499.94 485.505 1500.41 487.229 1499.53 488.222 1499.27 489.476 1500 491.253L1506.24 504.89 1510.36 513.982C1510.31 513.93 1510.2 513.93 1510.1 513.93 1508.9 513.826 1509.11 515.236 1510.41 517.849 1510.93 518.946 1512.02 519.887 1513.38 520.618 1514.06 521.716 1514.73 522.238 1515.93 521.716 1516.03 521.663 1516.14 521.611 1516.19 521.611 1517.13 521.82 1518.12 521.925 1519.05 521.977 1523.95 522.186 1528.06 521.454 1528.22 517.431ZM1514.06 504.89 1508.59 492.872C1515.2 494.44 1521.97 507.503 1522.7 515.08 1521.61 515.341 1520.41 515.445 1518.79 515.393ZM1524.62 491.253 1536.44 517.222C1537.9 520.462 1538.47 522.604 1540.56 521.716 1543.26 520.514 1544.98 518.737 1543.47 515.445L1531.6 489.476C1530.87 487.908 1530.09 486.236 1530.51 485.4 1531.08 484.303 1530.82 484.251 1528.84 484.982 1525.51 486.184 1523.06 487.856 1524.62 491.253ZM1565.78 518.058 1558.49 489.528C1558.08 487.856 1557.56 485.975 1558.13 485.348 1558.86 484.564 1558.6 484.408 1556.46 484.303 1552.92 484.199 1550.16 484.826 1551.1 488.536L1551.57 490.312C1549.59 490.521 1547.56 490.521 1545.32 490.364L1544.8 489.476C1543.86 487.908 1543.08 486.236 1543.45 485.4 1543.91 484.303 1543.65 484.251 1541.73 484.982 1538.86 486.027 1536.52 487.49 1537.46 490.155 1537.09 490.939 1537.2 492.454 1538.08 494.179 1538.55 495.224 1539.64 495.903 1541.05 496.321L1554.02 517.849C1555.94 521.036 1556.83 522.552 1558.55 522.604 1559.17 522.604 1559.74 522.604 1560.26 522.552 1560.58 522.761 1561.05 522.813 1561.72 522.813 1564.69 522.709 1566.72 521.716 1565.78 518.058ZM1556.15 508.182 1549.38 497C1550.68 496.896 1551.99 496.635 1553.08 496.269Z" fill="#e74d2c" fill-rule="evenodd"/>
<path transform="matrix(1,0,0,-1,-1360,599)" d="M1604.11 450.703C1606.64 461.413 1613.05 471.336 1622.99 474.49 1624.2 474.909 1625.35 475.091 1626.38 475.152 1630.41 475.995 1633.26 472.68 1634 467.412V467.411C1635.16 458.954 1632.41 449.747 1627.43 443.119 1625.45 440.486 1623.12 438.261 1620.54 436.646 1619.24 437.182 1617.67 437.461 1615.9 437.523 1615.88 437.524 1615.86 437.524 1615.84 437.524 1614.71 437.524 1613.85 437.398 1613.2 437.139 1612.45 437.189 1611.64 437.191 1610.77 437.191L1610.72 437.19C1609.01 437.138 1607.66 436.464 1606.31 435.012 1603.17 438.609 1602.6 444.111 1604.11 450.694 1604.11 450.696 1604.11 450.703 1604.11 450.703L1604.23 450.552V450.557C1604.19 450.619 1604.12 450.729 1604.11 450.703ZM1604.11 450.638C1604.12 450.615 1604.13 450.593 1604.14 450.574 1604.16 450.547 1604.19 450.528 1604.23 450.521V450.528C1604.19 450.542 1604.13 450.575 1604.11 450.638ZM1624.9 466.319C1624.9 466.319 1624.91 466.32 1624.91 466.32 1621.91 465.302 1619.14 462.58 1616.97 459.125 1613.77 454.04 1611.85 447.361 1612.41 442.073 1612.62 442.163 1612.85 442.239 1613.08 442.314 1616.36 443.425 1619.1 446.098 1621.19 449.496 1624.28 454.512 1625.95 461.109 1625.84 466.695L1624.92 466.326V466.324L1624.88 466.315V466.316 466.315C1624.88 466.315 1624.89 466.316 1624.9 466.319ZM1624.88 466.315H1624.87ZM1624.87 466.315 1624.86 466.312 1624.88 466.315ZM1626.41 475.005C1626.41 475.068 1626.41 475.13 1626.39 475.147L1626.4 475.003ZM1637.84 479.153C1635.6 478.147 1632.59 477.15 1629.94 478.076 1628.07 478.73 1626.86 479.519 1626.41 480.112 1626.22 480.369 1626.16 480.605 1626.2 480.795 1626.24 481.002 1626.39 481.182 1626.7 481.283 1632.19 483.083 1634.55 483.896 1637.46 485.959 1637.94 486.31 1638.22 486.551 1638.42 486.705 1638.68 486.891 1638.85 486.968 1639.12 486.976 1639.41 487.004 1639.8 486.927 1640.16 486.756 1640.53 486.58 1640.85 486.306 1641.02 485.958 1641.03 485.936 1641.05 485.915 1641.08 485.89 1641.14 485.833 1641.23 485.773 1641.32 485.709 1641.61 485.517 1641.95 485.31 1642.1 485.156 1642.54 484.718 1642.76 484.267 1642.8 483.819 1642.85 483.369 1642.73 482.916 1642.46 482.471 1641.72 481.246 1639.84 480.067 1637.84 479.153 1637.82 479.144 1637.8 479.14 1637.78 479.14 1637.78 479.139 1637.81 479.138 1637.84 479.153ZM1637.75 479.277 1637.78 479.14C1637.78 479.147 1637.78 479.216 1637.77 479.284ZM1638.55 433.163C1638.23 433.266 1637.85 433.401 1637.4 433.567 1635.85 434.125 1634.45 434.761 1633.37 435.543 1632.26 436.342 1631.49 437.294 1631.22 438.467 1630.99 439.47 1631.14 440.637 1631.77 442.014L1647.31 476.154C1648.27 478.295 1648.94 480.072 1649.72 481.168 1650.12 481.743 1650.56 482.135 1651.07 482.31 1651.59 482.487 1652.19 482.448 1652.91 482.138V482.137C1653.52 481.865 1654.07 481.593 1654.61 481.257H1654.7 1654.71C1656.22 481.186 1657.51 480.842 1658.36 479.976 1659.21 479.11 1659.65 477.718 1659.44 475.528V475.527C1658.85 469.993 1658.27 464.398 1657.63 458.799L1658.13 459.875 1665.59 476.155C1666.55 478.26 1667.22 480.036 1667.99 481.141 1668.39 481.72 1668.82 482.119 1669.32 482.3 1669.83 482.483 1670.41 482.448 1671.12 482.137 1673.35 481.169 1675.03 479.914 1675.59 478.118 1675.97 476.916 1675.85 475.468 1675.03 473.694L1668.67 459.75 1659.77 439.829V439.824C1658.98 438.228 1658.31 436.937 1657.61 435.969 1657.56 435.896 1657.5 435.825 1657.45 435.756 1655.08 436.213 1652.32 436.31 1649.39 436.189L1649.36 436.188C1648.72 436.152 1648.07 436.101 1647.42 436.029 1647.41 436.07 1647.41 436.112 1647.4 436.155 1647.3 436.971 1647.45 438.186 1647.57 439.901V439.907C1648.22 445.727 1648.81 451.608 1649.4 457.552L1641.22 439.554 1641.21 439.553C1640.64 438.325 1640.05 437.049 1639.78 435.988 1639.61 435.319 1639.57 434.74 1639.77 434.327L1639.82 434.231C1639.68 434.046 1639.54 433.847 1639.4 433.635 1639.11 433.484 1638.83 433.327 1638.55 433.163ZM1546.38 434.542C1545.76 434.855 1545.18 435.194 1544.69 435.567 1543.06 436.784 1542.23 438.356 1542.96 440.502 1542.5 441.572 1542.64 443.583 1543.81 445.862 1544.43 447.256 1545.88 448.177 1547.75 448.742L1564.76 476.994C1566.04 479.099 1566.96 480.651 1567.86 481.686 1568.78 482.754 1569.67 483.282 1570.84 483.318H1570.85C1571.65 483.318 1572.39 483.317 1573.07 483.253 1573.5 483.516 1574.13 483.592 1575.02 483.592H1575.03C1577.43 483.508 1579.37 482.972 1580.27 481.508 1580.87 480.53 1581.01 479.13 1580.51 477.154L1570.92 439.648C1570.6 438.337 1570.22 436.929 1570.13 435.835 1570.08 435.152 1570.13 434.597 1570.41 434.291 1570.73 433.949 1570.9 433.682 1570.93 433.482 1570.96 433.252 1570.83 433.064 1570.48 432.939 1570.07 432.799 1569.32 432.724 1568.12 432.665H1568.11C1566.14 432.607 1564.34 432.724 1563.02 433.24 1562.11 433.595 1561.41 434.139 1561.02 434.934 1560.61 435.777 1560.53 436.908 1560.91 438.416V438.418L1561.48 440.584C1558.97 440.837 1556.39 440.835 1553.55 440.639L1552.9 439.54V439.539C1552.22 438.392 1551.59 437.202 1551.27 436.187 1550.96 436.19 1550.65 436.191 1550.33 436.191L1550.28 436.19C1548.77 436.144 1547.53 435.632 1546.38 434.542ZM1567.3 463.258 1559.05 449.637C1560.63 449.492 1562.21 449.174 1563.55 448.739ZM1580.19 436.427C1579.63 437.025 1579.24 437.699 1579.06 438.467 1578.83 439.47 1578.97 440.637 1579.61 442.014L1593.95 473.448C1591.57 473.25 1589.27 473.046 1587.02 472.715 1586.32 472.623 1585.8 473.045 1585.56 473.847 1585.24 474.947 1585.47 476.8 1586.52 478.903 1586.97 479.88 1588.12 480.632 1589.67 481.191 1593.18 482.461 1598.73 482.768 1602.2 482.768 1605.47 482.768 1608.96 482.316 1611.35 481.075 1612.98 480.229 1614.1 479.019 1614.33 477.349 1614.37 477.053 1614.29 476.555 1614.26 476.112 1614.24 475.855 1614.24 475.619 1614.31 475.472L1614.32 475.469C1614.83 474.351 1614.3 473.239 1613.63 472.936 1613.42 472.814 1613.2 472.784 1612.88 472.824 1612.45 472.877 1611.82 473.059 1610.66 473.265 1608.98 473.536 1606.9 473.739 1604.68 473.744 1604.67 473.727 1604.67 473.71 1604.66 473.694L1589.05 439.553C1588.48 438.325 1587.89 437.049 1587.62 435.988 1587.45 435.319 1587.41 434.74 1587.61 434.327 1587.8 433.964 1587.92 433.683 1587.96 433.481 1588 433.298 1587.97 433.163 1587.9 433.072 1587.82 432.972 1587.68 432.908 1587.45 432.917 1587.07 432.932 1586.38 433.147 1585.3 433.544 1584.08 434.703 1582.41 435.614 1580.47 436.337L1580.42 436.355C1580.34 436.381 1580.26 436.405 1580.19 436.427ZM1549.36 479.436C1550.35 478.893 1551.13 477.824 1551.6 476.458 1552.31 474.422 1552.35 471.724 1551.52 469.177 1548.24 458.892 1541.22 450.586 1531.95 446.76L1536.51 439.974C1537.33 438.742 1537.53 438.469 1538.01 437.853V437.851C1538.49 437.204 1539.14 436.797 1539.56 436.473 1539.73 436.345 1539.86 436.228 1539.95 436.116 1540.02 436.021 1540.06 435.926 1540.07 435.833 1540.08 435.694 1540.02 435.547 1539.84 435.397 1539.64 435.227 1539.26 435.035 1538.63 434.804 1538.17 434.633 1537.77 434.62 1537.37 434.599 1536.82 434.571 1536.26 434.525 1535.52 433.934 1535.5 433.92 1535.48 433.91 1535.46 433.905 1531.9 433.136 1528.84 434.88 1527.02 437.117L1527.01 437.129 1523.6 442.328 1522.35 439.555C1521.82 438.326 1521.21 437.049 1520.93 435.987 1520.76 435.319 1520.7 434.741 1520.91 434.329 1521.11 433.966 1521.24 433.686 1521.29 433.484 1521.33 433.298 1521.3 433.163 1521.22 433.071 1521.14 432.971 1521 432.908 1520.77 432.917 1520.37 432.933 1519.65 433.155 1518.53 433.567 1517.01 434.126 1515.63 434.753 1514.56 435.527 1513.47 436.317 1512.71 437.261 1512.43 438.436 1512.19 439.439 1512.31 440.614 1512.9 442.01V442.014L1521.05 459.943 1526.4 471.615C1526.37 471.615 1526.35 471.615 1526.33 471.615 1525.95 471.585 1525.68 471.652 1525.48 471.797 1525.27 471.948 1525.15 472.185 1525.11 472.512 1525.01 473.361 1525.52 474.883 1526.52 476.979 1527.22 478.507 1528.73 479.764 1530.59 480.672 1531.1 481.557 1531.67 482.155 1532.38 482.349 1532.86 482.482 1533.41 482.429 1534.05 482.136V482.134C1534.11 482.105 1534.16 482.077 1534.2 482.053 1534.24 482.033 1534.27 482.016 1534.31 482.013 1535.55 482.287 1536.78 482.424 1538.02 482.493 1541.04 482.618 1543.83 482.466 1545.99 481.744 1547.44 481.259 1548.6 480.517 1549.36 479.436ZM1529.48 455.197C1531.7 456.049 1533.9 457.898 1535.88 460.247 1538.99 463.92 1541.57 468.819 1542.9 473.092 1541.28 473.409 1539.66 473.598 1537.85 473.541ZM1480.73 482.69C1483 481.849 1484.78 480.72 1485.48 478.975 1485.95 477.807 1485.95 476.36 1485.27 474.529V474.528L1479.93 460.24 1472.06 439.36C1471.65 438.09 1471.15 436.77 1470.94 435.697 1470.81 435.021 1470.79 434.447 1471.02 434.06 1471.23 433.714 1471.36 433.445 1471.41 433.25 1471.46 433.071 1471.44 432.938 1471.37 432.844 1471.3 432.742 1471.16 432.671 1470.94 432.666 1470.55 432.657 1469.84 432.828 1468.73 433.152 1467.13 433.589 1465.7 434.112 1464.57 434.808 1463.43 435.518 1462.6 436.409 1462.25 437.565 1461.94 438.553 1461.98 439.737 1462.47 441.175V441.18L1468.13 456.254C1465.1 451.495 1462.06 446.688 1458.97 441.938V441.937C1457.89 440.32 1457.24 439.226 1456.64 438.579 1456.22 438.134 1455.83 437.892 1455.35 437.824 1454.77 437.344 1454.06 437.333 1453.21 437.476L1453.2 437.477C1451.53 437.827 1450.49 438.107 1449.85 438.42 1449.39 438.645 1449.13 438.893 1448.99 439.186 1448.77 439.653 1448.86 440.256 1448.97 441.146V441.152C1449.73 445.624 1450.6 450.095 1451.42 454.513L1444.6 439.555C1444.07 438.326 1443.47 437.048 1443.19 435.987 1443.01 435.317 1442.96 434.739 1443.16 434.327 1443.35 433.964 1443.47 433.683 1443.51 433.481 1443.55 433.298 1443.52 433.163 1443.45 433.072 1443.37 432.972 1443.23 432.908 1443 432.917 1442.61 432.933 1441.9 433.155 1440.79 433.567 1439.24 434.126 1437.85 434.753 1436.79 435.527 1435.7 436.318 1434.94 437.262 1434.67 438.437 1434.44 439.44 1434.57 440.614 1435.16 442.01V442.014L1450.7 476.154V476.156C1451.7 478.3 1452.51 479.855 1453.35 480.884 1454.22 481.945 1455.13 482.458 1456.31 482.493 1457.05 482.493 1457.73 482.493 1458.34 482.428 1458.7 482.563 1459.11 482.631 1459.53 482.631 1461.03 482.595 1462.11 482.276 1462.73 481.428 1463.34 480.59 1463.52 479.216 1463.17 477.03V477.028L1459.61 457.108C1464.05 464.173 1468.44 471.238 1472.96 478.303V478.304C1473.96 479.832 1474.93 481.028 1475.93 481.801 1476.94 482.585 1477.97 482.937 1479.1 482.772 1479.53 482.906 1480.09 482.904 1480.73 482.692ZM1515.8 477.154 1506.22 439.648C1505.89 438.337 1505.51 436.929 1505.43 435.835 1505.37 435.152 1505.42 434.597 1505.7 434.291 1506.02 433.949 1506.2 433.682 1506.22 433.482 1506.25 433.252 1506.13 433.064 1505.77 432.939 1505.37 432.799 1504.61 432.724 1503.41 432.665 1501.43 432.607 1499.63 432.724 1498.31 433.24 1497.4 433.595 1496.71 434.139 1496.32 434.934 1495.9 435.777 1495.82 436.908 1496.2 438.416L1496.21 438.418 1496.78 440.584C1494.26 440.837 1491.68 440.835 1488.84 440.639L1488.2 439.54V439.539C1487.46 438.314 1486.8 437.041 1486.5 435.983 1486.3 435.312 1486.24 434.732 1486.42 434.318V434.317C1486.58 433.952 1486.68 433.67 1486.7 433.468 1486.72 433.287 1486.68 433.155 1486.6 433.066 1486.51 432.967 1486.37 432.909 1486.15 432.917 1485.75 432.933 1485.06 433.155 1483.98 433.568 1482.45 434.123 1481.04 434.768 1479.98 435.567 1478.36 436.784 1477.52 438.356 1478.25 440.502 1477.79 441.572 1477.93 443.583 1479.1 445.862 1479.73 447.256 1481.17 448.177 1483.04 448.742L1500.06 476.994C1501.33 479.099 1502.26 480.651 1503.15 481.686 1504.07 482.754 1504.96 483.282 1506.14 483.318 1506.95 483.318 1507.69 483.317 1508.36 483.253 1508.79 483.516 1509.42 483.592 1510.32 483.592 1512.72 483.508 1514.66 482.972 1515.56 481.508 1516.16 480.53 1516.31 479.13 1515.8 477.154ZM1502.59 463.258 1494.34 449.637C1495.93 449.492 1497.5 449.174 1498.85 448.739Z" fill="#e74d2c" fill-rule="evenodd"/>
<path transform="matrix(1,0,0,-1,-1360,599)" d="M1579.89 434.786C1584.38 433.119 1587.28 430.536 1585.29 425.119L1578.81 407.785 1569.26 382.452C1568.43 379.869 1567.27 377.119 1568.02 375.869 1569.01 374.202 1568.6 374.118 1565.44 375.035 1559.96 376.535 1556.06 378.869 1557.97 384.535L1565.44 404.452C1561.45 398.202 1557.47 391.869 1553.4 385.619 1551.24 382.369 1550.49 380.869 1549.08 380.702 1548.42 380.119 1547.59 380.119 1546.59 380.285 1541.02 381.452 1541.27 381.952 1541.61 384.535 1542.6 390.452 1543.77 396.369 1544.85 402.202L1535.96 382.702C1534.88 380.202 1533.55 377.535 1534.21 376.202 1535.13 374.452 1534.71 374.368 1531.56 375.535 1526.24 377.452 1522.5 380.035 1524.83 385.535L1543.68 426.952C1546.09 432.119 1547.59 434.452 1550.33 434.536 1551.24 434.536 1552.07 434.536 1552.82 434.452 1553.23 434.619 1553.73 434.702 1554.23 434.702 1557.72 434.619 1559.3 433.286 1558.47 428.119L1553.98 403.035C1559.54 411.869 1565.03 420.702 1570.67 429.536 1573.08 433.202 1575.32 435.286 1577.98 434.869 1578.48 435.036 1579.14 435.036 1579.89 434.786ZM1622.32 428.286 1610.69 382.785C1610.03 380.119 1609.2 377.119 1610.11 376.119 1611.27 374.868 1610.86 374.618 1607.45 374.452 1601.81 374.285 1597.4 375.285 1598.9 381.202L1599.65 384.035C1596.49 384.369 1593.25 384.369 1589.68 384.119L1588.85 382.702C1587.35 380.202 1586.11 377.535 1586.69 376.202 1587.44 374.452 1587.02 374.368 1583.95 375.535 1579.38 377.202 1575.65 379.535 1577.14 383.785 1576.56 385.035 1576.72 387.452 1578.14 390.202 1578.88 391.869 1580.63 392.952 1582.87 393.619L1603.55 427.952C1606.62 433.036 1608.03 435.452 1610.77 435.536 1611.77 435.536 1612.68 435.536 1613.52 435.452 1614.01 435.786 1614.76 435.869 1615.84 435.869 1620.57 435.702 1623.81 434.119 1622.32 428.286ZM1606.95 412.535 1596.16 394.702C1598.23 394.535 1600.31 394.119 1602.05 393.535ZM1663.08 430.869C1666.07 429.286 1667.31 423.702 1665.65 418.619 1661.66 406.119 1653.11 396.035 1641.82 391.452L1647.46 383.035C1648.46 381.535 1648.71 381.202 1649.29 380.452 1650.78 378.452 1653.53 378.285 1650.12 377.035 1648.79 376.535 1647.88 377.202 1646.3 375.952 1642.06 375.035 1638.41 377.119 1636.25 379.785L1631.93 386.369 1630.27 382.702C1629.19 380.202 1627.86 377.535 1628.53 376.202 1629.52 374.452 1629.03 374.368 1625.87 375.535 1620.64 377.452 1616.82 380.035 1619.14 385.535L1629.03 407.285 1635.67 421.785C1635.5 421.702 1635.42 421.702 1635.25 421.702 1633.26 421.535 1633.68 423.785 1635.67 427.952 1636.5 429.786 1638.33 431.286 1640.57 432.369 1641.57 434.119 1642.73 434.952 1644.56 434.119 1644.72 434.036 1644.81 433.952 1644.97 433.952 1646.47 434.286 1647.96 434.452 1649.46 434.536 1655.52 434.786 1660.83 434.119 1663.08 430.869ZM1638.74 401.285C1645.88 403.702 1652.94 414.702 1655.6 423.452 1653.53 423.869 1651.45 424.119 1649.12 424.035Z" fill="#7d2100" fill-rule="evenodd"/>
<path transform="matrix(1,0,0,-1,-1360,599)" d="M1512.95 425.912C1513.91 424.821 1513.24 422.2 1512.38 420.187 1510.88 416.621 1508.33 413.643 1504.38 412.993 1502.87 412.742 1501.6 413.203 1501.78 413.895 1501.43 414.294 1501.32 414.797 1501.62 415.51L1504.13 420.984 1505.78 424.633C1505.76 424.612 1505.71 424.612 1505.67 424.612 1505.19 424.57 1505.28 425.136 1505.8 426.185 1506.01 426.625 1506.45 427.003 1506.99 427.296 1507.26 427.737 1507.53 427.946 1508.01 427.737 1508.05 427.716 1508.1 427.695 1508.12 427.695 1508.49 427.778 1508.89 427.82 1509.27 427.841 1511.23 427.925 1512.88 427.632 1512.95 426.017ZM1507.26 420.984 1505.07 416.16C1507.72 416.789 1510.44 422.032 1510.73 425.073 1510.29 425.178 1509.81 425.22 1509.16 425.199ZM1523.87 425.639C1524.02 425.325 1523.87 425.01 1523.68 424.926 1523.53 424.842 1523.39 424.926 1522.8 425.031 1521.86 425.178 1520.8 425.22 1519.61 425.178L1518.1 421.864 1517.79 421.193C1519.19 421.109 1520.63 420.795 1520.76 419.83 1520.78 419.683 1520.71 419.411 1520.67 419.012 1520.63 418.677 1520.67 418.383 1520.48 418.299 1520.34 418.215 1520.19 418.299 1519.61 418.404 1518.77 418.53 1517.64 418.593 1516.6 418.572L1515.4 415.971H1515.76C1517.41 415.992 1519.67 415.594 1519.84 414.356 1519.86 414.21 1519.77 413.895 1519.84 413.769 1519.98 413.455 1519.84 413.14 1519.65 413.056 1519.5 412.972 1519.35 413.056 1518.77 413.161 1516.99 413.455 1514.65 413.329 1512.17 412.993 1511.75 412.93 1511.58 413.581 1511.89 414.461 1511.83 414.755 1511.87 415.111 1512.06 415.51L1514.94 421.864 1516.32 424.884C1516.28 424.884 1516.24 424.863 1516.2 424.863 1515.72 424.8 1515.57 425.639 1516.09 426.688 1516.32 427.212 1516.95 427.506 1517.7 427.653 1517.89 427.82 1518.1 427.862 1518.39 427.758 1518.85 427.82 1519.33 427.841 1519.79 427.841 1521.44 427.862 1523.7 427.464 1523.87 426.227 1523.89 426.08 1523.81 425.765 1523.87 425.639ZM1529.54 414.356C1529.56 414.21 1529.47 413.895 1529.54 413.769 1529.68 413.455 1529.54 413.14 1529.35 413.056 1529.2 412.972 1529.06 413.056 1528.47 413.161 1526.69 413.455 1524.56 413.329 1522.08 412.993 1521.66 412.93 1521.49 413.581 1521.8 414.461 1521.74 414.755 1521.78 415.111 1521.97 415.51L1524.86 421.864 1526.72 425.933C1527.3 427.233 1527.53 428.093 1528.37 427.737 1529.45 427.254 1530.14 426.541 1529.54 425.22L1528.01 421.864 1525.31 415.971H1525.67C1527.32 415.992 1529.37 415.594 1529.54 414.356Z" fill="#001a4a" fill-rule="evenodd"/>
<path transform="matrix(1,0,0,-1,-1360,599)" d="M1505.09 407.432C1505.06 407.55 1505.04 407.727 1505.04 407.873 1505.07 408.368 1505.24 408.986 1505.56 409.638L1505.57 409.662C1505.81 410.185 1506.36 410.48 1507.04 410.703 1508.34 411.132 1510.07 411.222 1511.64 411.31 1514.94 411.494 1521.54 411.389 1525.3 410.534 1526.04 410.366 1526.67 410.172 1527.11 409.936 1527.25 409.865 1527.37 409.791 1527.46 409.71 1527.5 409.675 1527.54 409.654 1527.55 409.612V409.605C1527.57 409.497 1527.52 409.369 1527.5 409.271 1527.48 409.143 1527.47 409.032 1527.47 408.951 1527.47 408.93 1527.47 408.909 1527.47 408.888 1527.5 408.517 1527.43 408.346 1527.41 408.232L1527.36 407.961 1527.38 407.738 1527.39 407.705C1527.14 407.78 1526.85 407.853 1526.52 407.914 1523.93 408.417 1516.04 409.038 1509.69 408.343 1509.45 408.316 1509.24 408.18 1509.11 407.975 1508.99 407.769 1508.97 407.517 1509.06 407.294 1509.09 407.229 1509.1 407.164 1509.11 407.098 1509.09 407.026 1509.07 406.943 1509.06 406.862 1507.55 407.418 1507.34 407.351 1505.09 407.432Z" fill="#001a4a"/>
<path transform="matrix(1,0,0,-1,-1360,599)" d="M1515.98 354.171H1511.59V348.218C1511.59 347.527 1511.75 347.038 1512.05 346.752 1512.36 346.466 1512.9 346.323 1513.67 346.323 1514.04 346.323 1514.4 346.348 1514.73 346.397 1515.07 346.446 1515.43 346.531 1515.83 346.649V342.769C1515.39 342.631 1514.84 342.517 1514.17 342.429 1513.5 342.339 1512.94 342.295 1512.48 342.295 1510.61 342.295 1509.19 342.715 1508.23 343.554 1507.27 344.393 1506.8 345.631 1506.8 347.271V354.171H1504.73V357.976C1504.79 357.987 1504.86 357.994 1504.92 358.008 1506.15 358.276 1507.11 358.939 1507.79 359.994 1508.13 360.524 1508.35 361.077 1508.45 361.652L1511.59 362.331V358.169H1515.98ZM1483.25 362.331H1488.55C1488.52 361.659 1488.27 361.079 1487.79 360.597 1487.27 360.078 1486.64 359.819 1485.9 359.819 1485.16 359.819 1484.54 360.078 1484.02 360.597 1483.54 361.079 1483.29 361.659 1483.25 362.331ZM1467.8 344.25 1470.08 347.478C1471.06 346.885 1471.96 346.457 1472.77 346.19 1473.58 345.923 1474.38 345.79 1475.17 345.79 1475.96 345.79 1476.59 345.903 1477.05 346.131 1477.51 346.357 1477.75 346.659 1477.75 347.034 1477.75 347.33 1477.62 347.572 1477.36 347.76 1477.1 347.947 1476.7 348.08 1476.15 348.159L1473.04 348.633C1471.5 348.87 1470.31 349.389 1469.48 350.187 1468.65 350.988 1468.24 352.028 1468.24 353.312 1468.24 354.892 1468.84 356.135 1470.05 357.044 1471.25 357.952 1472.9 358.406 1474.99 358.406 1476.12 358.406 1477.25 358.243 1478.38 357.918 1479.52 357.592 1480.57 357.122 1481.54 356.511L1479.26 353.43C1478.41 353.924 1477.6 354.284 1476.83 354.512 1476.06 354.739 1475.29 354.852 1474.52 354.852 1473.91 354.852 1473.41 354.748 1473.04 354.542 1472.66 354.334 1472.48 354.062 1472.48 353.727 1472.48 353.411 1472.61 353.159 1472.89 352.972 1473.17 352.784 1473.64 352.641 1474.31 352.542L1477.42 352.068C1478.96 351.85 1480.15 351.343 1480.99 350.543 1481.83 349.744 1482.25 348.731 1482.25 347.508 1482.25 346.757 1482.07 346.056 1481.72 345.405 1481.36 344.754 1480.87 344.19 1480.25 343.716 1479.63 343.243 1478.88 342.873 1478.01 342.606 1477.14 342.339 1476.21 342.206 1475.2 342.206 1473.72 342.206 1472.34 342.38 1471.07 342.725 1469.8 343.07 1468.7 343.578 1467.8 344.25ZM1489.44 344.25 1491.73 347.478C1492.71 346.885 1493.61 346.457 1494.42 346.19 1495.23 345.923 1496.03 345.79 1496.82 345.79 1497.61 345.79 1498.24 345.903 1498.7 346.131 1499.16 346.357 1499.4 346.659 1499.4 347.034 1499.4 347.33 1499.27 347.572 1499.01 347.76 1498.75 347.947 1498.35 348.08 1497.8 348.159L1494.69 348.633C1493.15 348.87 1491.96 349.389 1491.13 350.187 1490.3 350.988 1489.89 352.028 1489.89 353.312 1489.89 354.892 1490.49 356.135 1491.69 357.044 1492.9 357.952 1494.55 358.406 1496.64 358.406 1497.77 358.406 1498.9 358.243 1500.03 357.918 1501.17 357.592 1502.22 357.122 1503.19 356.511L1500.91 353.43C1500.06 353.924 1499.25 354.284 1498.48 354.512 1497.71 354.739 1496.94 354.852 1496.17 354.852 1495.56 354.852 1495.06 354.748 1494.69 354.542 1494.31 354.334 1494.12 354.062 1494.12 353.727 1494.12 353.411 1494.26 353.159 1494.54 352.972 1494.82 352.784 1495.29 352.641 1495.96 352.542L1499.07 352.068C1500.61 351.85 1501.8 351.343 1502.64 350.543 1503.48 349.744 1503.9 348.731 1503.9 347.508 1503.9 346.757 1503.72 346.056 1503.36 345.405 1503.01 344.754 1502.52 344.19 1501.9 343.716 1501.28 343.243 1500.53 342.873 1499.66 342.606 1498.79 342.339 1497.86 342.206 1496.85 342.206 1495.37 342.206 1493.99 342.38 1492.72 342.725 1491.44 343.07 1490.35 343.578 1489.44 344.25ZM1531.88 344.576C1530.9 343.746 1529.89 343.144 1528.85 342.769 1527.81 342.394 1526.64 342.206 1525.34 342.206 1524.15 342.206 1523.04 342.414 1521.99 342.828 1520.95 343.243 1520.04 343.815 1519.28 344.546 1518.52 345.277 1517.92 346.14 1517.48 347.137 1517.03 348.134 1516.81 349.196 1516.81 350.321 1516.81 351.446 1517.02 352.508 1517.45 353.505 1517.87 354.502 1518.45 355.366 1519.18 356.096 1519.91 356.826 1520.77 357.399 1521.77 357.814 1522.77 358.229 1523.84 358.436 1524.98 358.436 1526.13 358.436 1527.18 358.219 1528.15 357.785 1529.12 357.35 1529.95 356.757 1530.65 356.007 1531.35 355.257 1531.9 354.354 1532.3 353.297 1532.69 352.241 1532.89 351.101 1532.89 349.877V348.692H1521.73C1522.04 347.962 1522.54 347.364 1523.21 346.9 1523.88 346.436 1524.67 346.205 1525.58 346.205 1526.23 346.205 1526.82 346.308 1527.35 346.516 1527.89 346.722 1528.34 347.014 1528.72 347.389ZM1524.9 354.527C1524.1 354.527 1523.42 354.309 1522.85 353.875 1522.28 353.44 1521.87 352.828 1521.64 352.039H1528.18C1527.93 352.789 1527.51 353.391 1526.92 353.845 1526.34 354.299 1525.66 354.527 1524.9 354.527ZM1483.5 342.503H1488.2975V358.1694H1483.5ZM1616.02 354.171H1611.64V348.218C1611.64 347.527 1611.79 347.038 1612.1 346.752 1612.4 346.466 1612.94 346.323 1613.71 346.323 1614.09 346.323 1614.44 346.348 1614.78 346.397 1615.11 346.446 1615.48 346.531 1615.87 346.649V342.769C1615.44 342.631 1614.88 342.517 1614.21 342.429 1613.54 342.339 1612.98 342.295 1612.53 342.295 1610.65 342.295 1609.23 342.715 1608.28 343.554 1607.32 344.393 1606.84 345.631 1606.84 347.271V354.171H1604.77V357.976C1604.84 357.987 1604.9 357.994 1604.97 358.008 1606.2 358.276 1607.15 358.939 1607.83 359.994 1608.17 360.524 1608.39 361.077 1608.49 361.652L1611.64 362.331V358.169H1616.02ZM1566.36 362.313H1571.65C1571.62 361.641 1571.37 361.061 1570.89 360.579 1570.37 360.06 1569.74 359.801 1569.01 359.801 1568.27 359.801 1567.64 360.06 1567.12 360.579 1566.64 361.061 1566.39 361.641 1566.36 362.313ZM1597.2 362.313H1602.5C1602.47 361.641 1602.22 361.061 1601.73 360.579 1601.22 360.06 1600.59 359.801 1599.85 359.801 1599.11 359.801 1598.49 360.06 1597.97 360.579 1597.48 361.061 1597.24 361.641 1597.2 362.313ZM1542.51 346.353C1543.17 346.353 1543.77 346.49 1544.32 346.767 1544.87 347.043 1545.41 347.468 1545.92 348.041L1548.76 345.079C1547.97 344.171 1547.01 343.465 1545.86 342.962 1544.72 342.458 1543.52 342.206 1542.28 342.206 1541.11 342.206 1540.02 342.414 1539.01 342.828 1537.99 343.243 1537.11 343.815 1536.37 344.546 1535.63 345.277 1535.05 346.135 1534.62 347.122 1534.2 348.11 1533.99 349.176 1533.99 350.321 1533.99 351.466 1534.2 352.537 1534.62 353.535 1535.05 354.532 1535.63 355.39 1536.37 356.111 1537.11 356.831 1537.99 357.404 1539.01 357.829 1540.02 358.253 1541.11 358.465 1542.28 358.465 1543.56 358.465 1544.78 358.208 1545.95 357.696 1547.12 357.181 1548.1 356.471 1548.91 355.563L1545.98 352.513C1545.43 353.125 1544.86 353.579 1544.29 353.875 1543.72 354.171 1543.09 354.319 1542.4 354.319 1541.37 354.319 1540.51 353.934 1539.81 353.164 1539.1 352.395 1538.75 351.446 1538.75 350.321 1538.75 349.196 1539.11 348.253 1539.84 347.493 1540.56 346.733 1541.45 346.353 1542.51 346.353ZM1550.07 342.503V358.169H1554.86V356.6C1555.38 357.211 1555.98 357.685 1556.67 358.021 1557.36 358.357 1558.13 358.525 1558.98 358.525 1559.43 358.505 1559.8 358.47 1560.08 358.421 1560.35 358.371 1560.59 358.278 1560.79 358.139V353.964C1560.47 354.102 1560.12 354.216 1559.72 354.305 1559.33 354.393 1558.92 354.438 1558.51 354.438 1557.76 354.438 1557.06 354.26 1556.42 353.905 1555.78 353.549 1555.26 353.065 1554.86 352.454V342.503ZM1576.04 344.576C1575.05 343.746 1574.04 343.144 1573 342.769 1571.97 342.394 1570.8 342.206 1569.49 342.206 1568.31 342.206 1567.19 342.414 1566.15 342.828 1565.1 343.243 1564.2 343.815 1563.44 344.546 1562.68 345.277 1562.08 346.14 1561.63 347.137 1561.19 348.134 1560.97 349.196 1560.97 350.321 1560.97 351.446 1561.18 352.508 1561.6 353.505 1562.03 354.502 1562.6 355.366 1563.33 356.096 1564.07 356.826 1564.93 357.399 1565.93 357.814 1566.92 358.229 1567.99 358.436 1569.14 358.436 1570.28 358.436 1571.34 358.219 1572.31 357.785 1573.28 357.35 1574.11 356.757 1574.81 356.007 1575.51 355.257 1576.06 354.354 1576.46 353.297 1576.85 352.241 1577.05 351.101 1577.05 349.877V348.692H1565.88C1566.2 347.962 1566.69 347.364 1567.36 346.9 1568.03 346.436 1568.82 346.205 1569.73 346.205 1570.38 346.205 1570.98 346.308 1571.51 346.516 1572.04 346.722 1572.5 347.014 1572.87 347.389ZM1569.05 354.527C1568.26 354.527 1567.58 354.309 1567.01 353.875 1566.43 353.44 1566.03 352.828 1565.79 352.039H1572.34C1572.08 352.789 1571.66 353.391 1571.08 353.845 1570.5 354.299 1569.82 354.527 1569.05 354.527ZM1590.34 342.503V343.657C1589.73 343.223 1589.07 342.888 1588.36 342.651 1587.65 342.414 1586.91 342.295 1586.14 342.295 1585.03 342.295 1583.99 342.503 1583.02 342.918 1582.04 343.332 1581.19 343.904 1580.47 344.635 1579.75 345.365 1579.18 346.22 1578.76 347.196 1578.35 348.174 1578.14 349.225 1578.14 350.351 1578.14 351.476 1578.35 352.527 1578.78 353.505 1579.2 354.482 1579.78 355.33 1580.51 356.052 1581.24 356.772 1582.11 357.34 1583.1 357.755 1584.1 358.169 1585.16 358.376 1586.29 358.376 1587.02 358.376 1587.72 358.287 1588.39 358.11 1589.06 357.933 1589.69 357.676 1590.28 357.34V361.276L1595.08 362.313V342.503ZM1582.85 350.351C1582.85 349.225 1583.25 348.283 1584.05 347.523 1584.85 346.763 1585.82 346.383 1586.97 346.383 1587.64 346.383 1588.25 346.486 1588.8 346.693 1589.36 346.9 1589.85 347.211 1590.28 347.626V353.105C1589.87 353.479 1589.38 353.776 1588.8 353.994 1588.23 354.211 1587.62 354.32 1586.97 354.32 1585.8 354.32 1584.83 353.938 1584.04 353.179 1583.25 352.419 1582.85 351.476 1582.85 350.351ZM1597.45 342.503H1602.2474V358.1694H1597.45ZM1630.7 353.702 1633.25 352.583C1633.47 351.86 1633.58 351.107 1633.58 350.321 1633.58 349.196 1633.36 348.135 1632.92 347.137 1632.47 346.14 1631.87 345.276 1631.11 344.546 1630.35 343.815 1629.45 343.244 1628.41 342.828 1627.38 342.413 1626.27 342.206 1625.08 342.206 1623.9 342.206 1622.79 342.413 1621.75 342.828 1620.71 343.244 1619.82 343.815 1619.06 344.546 1618.3 345.276 1617.69 346.14 1617.25 347.137 1616.8 348.135 1616.58 349.196 1616.58 350.321 1616.58 351.446 1616.8 352.507 1617.25 353.504 1617.69 354.501 1618.3 355.365 1619.06 356.096 1619.82 356.826 1620.71 357.404 1621.75 357.829 1622.79 358.253 1623.9 358.465 1625.08 358.465 1626.27 358.465 1627.38 358.253 1628.41 357.829 1629.45 357.404 1630.35 356.826 1631.11 356.096 1631.8 355.433 1632.35 354.654 1632.78 353.771L1631.06 354.526C1630.66 354.7 1630.22 354.709 1629.82 354.551 1629.42 354.394 1629.1 354.089 1628.93 353.693L1628.36 352.409C1628.2 352.676 1628.02 352.929 1627.79 353.164 1627.05 353.934 1626.15 354.32 1625.08 354.32 1624.02 354.32 1623.11 353.934 1622.37 353.164 1621.63 352.394 1621.26 351.446 1621.26 350.321 1621.26 349.215 1621.63 348.277 1622.37 347.508 1623.11 346.737 1624.02 346.353 1625.08 346.353 1626.15 346.353 1627.05 346.737 1627.79 347.508 1628.53 348.277 1628.9 349.215 1628.9 350.321 1628.9 350.629 1628.87 350.922 1628.82 351.204L1629.75 353.331C1629.83 353.508 1629.97 353.643 1630.15 353.713 1630.33 353.783 1630.52 353.779 1630.7 353.702Z" fill="#001a4a" fill-rule="evenodd"/>
<path transform="matrix(1,0,0,-1,-1360,599)" d="M1235.31 466.315H1235.3Z" fill="#f5e9d8" fill-rule="evenodd"/>
<path transform="matrix(1,0,0,-1,-1360,599)" d="M850.355 466.315H850.348 850.353Z" fill="#f5e9d8" fill-rule="evenodd"/>
<g clip-path="url(#clip_2)">
<g clip-path="url(#clip_3)">
</g>
</g>
<g clip-path="url(#clip_4)">
<path transform="matrix(1,0,0,-1,-1360,599)" d="M771.869 556.076H1484.125V974.495H771.869Z" fill="#f1bbc6" fill-opacity=".576926" fill-rule="evenodd"/>
<g clip-path="url(#clip_5)">
</g>
</g>
<path transform="matrix(1,0,0,-1,-1360,599)" d="M1624.88 799.907H1624.87Z" fill="#e74d2c" fill-rule="evenodd"/>
<path transform="matrix(1,0,0,-1,-1360,599)" d="M850.355 799.907H850.348 850.353Z" fill="#e74d2c" fill-rule="evenodd"/>
<path transform="matrix(1,0,0,-1,-1360,599)" d="M1235.31 799.907H1235.3Z" fill="#d4216a" fill-rule="evenodd"/>
<g clip-path="url(#clip_6)">
<g clip-path="url(#clip_7)">
</g>
</g>
<path transform="matrix(1,0,0,-1,-1360,599)" d="M460.156 799.907H460.148 460.154Z" fill="#e74d2c" fill-rule="evenodd"/>
<path transform="matrix(1,0,0,-1,-1360,599)" d="M460.156 466.315H460.148 460.154Z" fill="#f5e9d8" fill-rule="evenodd"/>
</g>
<g inkscape:groupmode="layer" inkscape:label="Capa 1">
</g>
<g inkscape:groupmode="layer" inkscape:label="Capa 1">
</g>
<g inkscape:groupmode="layer" inkscape:label="Capa 1">
</g>
<g inkscape:groupmode="layer" inkscape:label="Capa 1">
</g>
</g>
</g>
</svg>
